<?xml version="1.0" encoding="UTF-8" standalone="no"?>
<!DOCTYPE svg PUBLIC "-//W3C//DTD SVG 1.1//EN" "http://www.w3.org/Graphics/SVG/1.1/DTD/svg11.dtd">
<svg xmlns="http://www.w3.org/2000/svg" version="1.1" viewBox="0.00 0.00 913.00 438.00">
<path fill="#297f38" d="
  M 327.96 104.45
  Q 331.03 109.67 331.04 115.01
  Q 331.07 178.92 331.06 228.00
  Q 331.05 286.31 293.38 329.45
  Q 273.44 352.29 246.03 369.05
  Q 220.37 384.73 193.40 397.91
  C 188.49 400.30 184.31 401.69 179.44 399.53
  Q 142.62 383.14 105.12 357.15
  Q 99.43 353.20 89.37 344.42
  Q 67.51 325.35 54.10 300.71
  C 41.64 277.81 36.98 251.83 37.00 225.50
  Q 37.07 159.86 36.98 116.26
  Q 36.95 100.68 51.95 95.18
  Q 74.14 87.03 176.94 49.75
  Q 184.27 47.09 192.84 50.22
  Q 227.88 62.99 313.20 94.33
  C 320.06 96.85 324.64 98.80 327.96 104.45
  Z
  M 299.58 123.64
  Q 299.27 123.38 298.63 123.12
  Q 296.69 122.34 216.95 93.31
  Q 201.59 87.72 188.55 82.21
  Q 184.07 80.32 180.00 81.74
  C 175.35 83.37 170.00 85.85 165.47 87.53
  Q 135.42 98.68 69.10 123.08
  A 1.35 1.34 80.2 0 0 68.21 124.35
  Q 68.31 210.73 68.24 229.87
  Q 68.18 244.91 69.57 252.72
  C 74.52 280.55 90.14 304.56 111.92 322.60
  C 131.80 339.06 153.79 351.50 177.05 364.52
  Q 180.95 366.71 185.16 366.42
  Q 187.87 366.23 192.94 363.52
  Q 218.13 350.07 239.57 335.55
  Q 257.09 323.69 270.19 309.46
  Q 292.04 285.72 298.45 252.97
  Q 299.88 245.65 299.88 240.50
  Q 299.90 172.38 299.95 124.44
  A 1.05 1.03 -70.4 0 0 299.58 123.64
  Z"
/>
<path fill="#297f38" d="
  M 198.16 212.81
  A 0.63 0.63 0.0 0 0 197.52 213.44
  Q 197.65 245.90 197.42 276.47
  C 197.36 284.41 196.36 292.26 191.71 298.35
  C 186.67 304.94 177.16 308.32 169.15 309.09
  A 0.43 0.43 0.0 0 1 168.68 308.66
  L 168.68 266.50
  A 0.62 0.62 0.0 0 0 168.07 265.88
  Q 147.45 265.84 136.16 265.98
  Q 122.74 266.14 117.58 264.31
  C 105.16 259.89 100.93 249.15 99.81 236.66
  A 0.53 0.53 0.0 0 1 100.34 236.08
  L 167.86 236.08
  A 0.83 0.83 0.0 0 0 168.69 235.25
  L 168.69 213.36
  A 0.57 0.57 0.0 0 0 168.12 212.79
  L 99.54 212.79
  A 0.47 0.47 0.0 0 1 99.07 212.32
  L 99.07 184.21
  A 0.37 0.37 0.0 0 1 99.44 183.84
  L 168.01 183.84
  A 0.80 0.79 -1.7 0 0 168.81 183.00
  Q 168.20 171.94 169.83 161.76
  C 173.87 136.55 194.38 120.41 220.14 124.72
  A 1.21 1.20 -85.2 0 1 221.14 125.91
  L 221.14 149.69
  A 0.53 0.53 0.0 0 1 220.63 150.22
  Q 216.84 150.30 213.79 150.95
  C 196.06 154.72 197.46 168.81 197.42 183.10
  A 0.73 0.73 0.0 0 0 198.15 183.83
  L 250.85 183.83
  A 0.60 0.60 0.0 0 1 251.45 184.40
  C 251.94 197.26 249.27 207.17 236.07 211.77
  Q 232.96 212.86 226.31 212.87
  Q 204.18 212.91 198.16 212.81
  Z"
/>
<path fill="#141b18" d="
  M 491.97 199.91
  A 0.32 0.32 0.0 0 1 492.29 200.23
  L 492.29 214.61
  A 0.61 0.61 0.0 0 1 491.68 215.22
  L 476.69 215.22
  A 0.62 0.62 0.0 0 0 476.07 215.84
  L 476.07 269.15
  A 0.79 0.79 0.0 0 1 475.28 269.94
  L 458.87 269.94
  A 0.78 0.77 90.0 0 1 458.10 269.16
  L 458.10 215.79
  A 0.55 0.54 0.0 0 0 457.55 215.25
  L 446.55 215.25
  A 0.58 0.58 0.0 0 1 445.97 214.67
  L 445.97 200.42
  A 0.50 0.50 0.0 0 1 446.47 199.92
  L 457.21 199.92
  A 0.84 0.83 89.7 0 0 458.04 199.07
  C 457.98 193.44 458.37 186.80 460.45 181.76
  C 466.25 167.74 480.19 163.54 494.16 166.84
  A 0.85 0.84 10.2 0 1 494.80 167.75
  L 493.26 181.56
  A 0.55 0.54 11.5 0 1 492.56 182.02
  C 479.06 177.99 476.01 188.80 476.05 199.32
  A 0.59 0.58 -90.0 0 0 476.63 199.91
  L 491.97 199.91
  Z"
/>
<path fill="#141b18" d="
  M 856.54 263.48
  A 0.32 0.32 0.0 0 0 856.02 263.23
  Q 852.13 266.43 849.78 267.76
  C 843.78 271.18 837.03 271.67 830.51 270.26
  C 810.49 265.94 806.55 245.01 808.47 227.52
  C 810.00 213.57 818.55 200.83 833.29 198.71
  Q 845.99 196.89 856.06 205.49
  A 0.32 0.31 -69.6 0 0 856.58 205.25
  L 856.58 166.94
  A 0.48 0.48 0.0 0 1 857.06 166.46
  L 873.68 166.46
  A 0.37 0.37 0.0 0 1 874.05 166.83
  L 874.05 269.21
  A 0.79 0.79 0.0 0 1 873.26 270.00
  L 857.39 270.00
  A 0.85 0.85 0.0 0 1 856.54 269.15
  L 856.54 263.48
  Z
  M 825.88 234.92
  Q 825.87 240.40 826.62 243.62
  C 829.42 255.61 842.42 258.84 852.34 253.15
  Q 855.84 251.14 856.27 249.70
  A 6.30 1.81 -75.0 0 0 856.49 248.84
  Q 856.56 248.52 856.60 235.02
  Q 856.65 221.52 856.58 221.20
  A 6.30 1.81 75.3 0 0 856.36 220.34
  Q 855.94 218.89 852.45 216.86
  C 842.57 211.11 829.55 214.26 826.67 226.23
  Q 825.90 229.44 825.88 234.92
  Z"
/>
<path fill="#141b18" d="
  M 397.11 206.95
  C 403.63 201.33 409.46 198.07 418.39 198.39
  Q 435.03 199.00 439.88 214.31
  C 440.79 217.18 441.11 221.86 441.14 225.58
  Q 441.26 240.16 441.22 269.65
  A 0.34 0.34 0.0 0 1 440.88 269.99
  L 424.31 269.99
  A 0.46 0.45 89.3 0 1 423.86 269.54
  Q 423.75 261.26 423.84 231.77
  C 423.87 224.10 423.00 215.47 413.98 214.01
  Q 403.95 212.39 398.23 220.74
  Q 396.88 222.71 396.87 224.93
  Q 396.75 245.26 396.86 269.40
  A 0.60 0.60 0.0 0 1 396.26 270.01
  L 379.70 270.01
  A 0.55 0.55 0.0 0 1 379.15 269.46
  L 379.15 166.93
  A 0.45 0.45 0.0 0 1 379.60 166.48
  L 396.40 166.48
  A 0.43 0.43 0.0 0 1 396.83 166.91
  L 396.83 206.82
  A 0.17 0.17 0.0 0 0 397.11 206.95
  Z"
/>
<path fill="#141b18" d="
  M 621.06 206.62
  A 0.41 0.41 0.0 0 0 621.76 206.92
  Q 631.32 197.60 644.70 198.48
  Q 659.92 199.48 665.11 213.64
  Q 666.31 216.92 666.55 224.27
  Q 667.21 244.05 666.78 269.51
  A 0.50 0.50 0.0 0 1 666.28 270.00
  L 649.44 270.00
  A 0.64 0.64 0.0 0 1 648.80 269.36
  Q 648.93 238.52 648.77 229.76
  C 648.65 222.46 647.36 215.27 638.76 213.88
  Q 629.15 212.32 623.10 220.03
  C 621.51 222.06 621.09 223.57 621.08 226.31
  Q 621.00 249.94 621.13 269.61
  A 0.37 0.37 0.0 0 1 620.76 269.98
  L 604.22 269.98
  A 0.63 0.63 0.0 0 1 603.59 269.35
  L 603.59 166.86
  A 0.39 0.39 0.0 0 1 603.98 166.47
  L 620.60 166.47
  A 0.46 0.45 0.0 0 1 621.06 166.92
  L 621.06 206.62
  Z"
/>
<ellipse fill="#141b18" cx="0.00" cy="0.00" transform="translate(690.81,177.05) rotate(-0.8)" rx="11.07" ry="10.52"/>
<rect fill="#141b18" x="781.20" y="166.45" width="17.78" height="103.50" rx="0.59"/>
<path fill="#141b18" d="
  M 593.69 217.84
  A 0.59 0.58 -4.2 0 1 593.11 218.51
  L 577.73 218.51
  A 0.57 0.56 -9.2 0 1 577.19 218.13
  Q 574.44 210.48 565.88 211.17
  C 561.84 211.50 557.84 214.21 558.06 218.62
  C 558.27 222.66 563.27 225.02 566.84 225.93
  C 578.02 228.78 592.53 231.06 594.62 244.92
  C 597.01 260.66 587.08 268.68 572.97 270.49
  C 562.62 271.82 551.42 270.26 544.22 262.47
  Q 538.94 256.74 538.96 248.62
  A 0.58 0.58 0.0 0 1 539.54 248.04
  L 554.61 248.04
  A 0.85 0.84 -2.2 0 1 555.46 248.82
  C 556.12 257.40 566.97 257.91 572.93 255.97
  C 575.19 255.24 577.83 253.54 578.26 251.05
  C 579.00 246.71 575.18 244.33 571.65 243.04
  C 568.20 241.78 559.18 240.13 552.74 236.76
  Q 538.89 229.49 541.56 214.81
  Q 542.65 208.75 548.65 203.89
  C 556.75 197.32 570.31 196.96 579.80 200.46
  Q 591.91 204.93 593.69 217.84
  Z"
/>
<path fill="#141b18" d="
  M 726.01 239.15
  C 726.02 246.51 728.41 254.13 736.42 256.02
  Q 747.78 258.69 754.73 248.84
  A 1.46 1.46 0.0 0 1 756.31 248.27
  L 769.89 251.99
  A 1.16 1.15 -68.2 0 1 770.60 253.66
  C 762.45 268.57 750.41 272.20 734.84 270.46
  C 718.14 268.60 709.44 255.11 708.29 239.24
  C 706.85 219.20 714.98 201.19 736.79 198.60
  C 756.01 196.31 769.90 208.03 771.89 227.09
  Q 772.47 232.66 772.41 237.93
  A 0.54 0.53 -90.0 0 1 771.88 238.47
  L 726.68 238.47
  A 0.67 0.67 0.0 0 0 726.01 239.15
  Z
  M 727.61 226.86
  L 753.31 226.82
  A 0.71 0.71 0.0 0 0 754.02 226.11
  L 754.02 225.79
  A 13.93 12.30 89.9 0 0 741.70 211.88
  L 739.18 211.88
  A 13.93 12.30 89.9 0 0 726.90 225.83
  L 726.90 226.15
  A 0.71 0.71 0.0 0 0 727.61 226.86
  Z"
/>
<rect fill="#141b18" x="681.67" y="199.90" width="17.36" height="70.12" rx="0.66"/>
<rect fill="#141b18" x="-18.39" y="-8.03" transform="translate(514.32,231.99) rotate(-0.1)" width="36.78" height="16.06" rx="0.86"/>
</svg>
